PathFileType  4	(X/Y/Z) C:\simtk\uwmodels\fbknee\data\invivovalid2\exp\aclc01\Files_W_HJCs
DataRate	CameraRate	NumFrames	NumMarkers	Units	OrigDataRate	OrigDataStartFrame	OrigNumFrames
  200.0      200.0        9         42 mm      200.0         451       515
Frame#	Time            R.Shoulder                       R.Clavicle                       R.Bicep                          R.Elbow                          R.Forearm                        R.Wrist                          L.Shoulder                       L.Clavicle                       L.Scapula                        L.Bicep                          L.Elbow                          L.Forearm                        L.Wrist                          R.ASIS                           R.PSIS                           S2                               L.PSIS                           L.ASIS                           R.TH1                            R.TH2                            R.TH3                            R.Knee                           R.SH1                            R.SH2                            R.SH3                            R.SH4                            R.Ankle                          R.Heel                           R.MT5                            L.TH1                            L.TH2                            L.TH3                            L.TH4                            L.Knee                           L.SH1                            L.SH2                            L.SH3                            L.Ankle                          L.Heel                           L.MT5                            R_HJC                            L_HJC                  
                     X1         Y1         Z1         X2         Y2         Z2         X3         Y3         Z3         X4         Y4         Z4         X5         Y5         Z5         X6         Y6         Z6         X7         Y7         Z7         X8         Y8         Z8         X9         Y9         Z9         X10         Y10         Z10         X11         Y11         Z11         X12         Y12         Z12         X13         Y13         Z13         X14         Y14         Z14         X15         Y15         Z15         X16         Y16         Z16         X17         Y17         Z17         X18         Y18         Z18         X19         Y19         Z19         X20         Y20         Z20         X21         Y21         Z21         X22         Y22         Z22         X23         Y23         Z23         X24         Y24         Z24         X25         Y25         Z25         X26         Y26         Z26         X27         Y27         Z27         X28         Y28         Z28         X29         Y29         Z29         X30         Y30         Z30         X31         Y31         Z31         X32         Y32         Z32         X33         Y33         Z33         X34         Y34         Z34         X35         Y35         Z35         X36         Y36         Z36         X37         Y37         Z37         X38         Y38         Z38         X39         Y39         Z39         X40         Y40         Z40         X41         Y41         Z41         X42         Y42         Z42         

	451	2.25000	1261.120	10.869	1328.931	1337.143	151.684	1310.143	1285.646	-16.648	1104.141	1173.536	-82.034	1033.338	1270.033	-105.359	942.695	1236.787	-166.132	842.557	1332.338	379.434	1317.464	1352.238	205.845	1303.590	1184.574	304.522	1312.908	1409.459	381.199	1176.220	1430.652	473.780	1037.951	1529.179	415.708	1025.369	1611.589	427.262	945.327	1347.392	43.457	884.534	1116.311	136.328	933.244	1111.940	191.324	931.705	1122.481	250.035	948.873	1358.628	307.910	874.396	1367.560	-17.041	687.360	1230.304	15.534	625.666	1263.495	27.688	560.826	1367.663	19.477	455.283	1454.965	-12.528	351.904	1490.090	-4.978	286.053	1362.318	50.710	314.580	1395.306	51.477	245.665	1551.374	16.819	93.437	1519.082	79.380	32.505	1673.132	-29.810	97.446	1277.697	340.719	610.884	1270.309	313.616	534.282	1128.851	346.026	628.455	1114.140	326.623	554.806	1142.044	330.405	465.245	1158.356	331.580	362.661	1052.802	330.332	394.941	1029.134	330.535	319.636	1042.741	311.582	78.294	953.105	282.286	44.607	1141.583	319.489	21.396	1254.453	86.920	833.444	1259.991	281.387	806.967
	452	2.25500	1267.942	9.826	1327.359	1344.277	150.397	1308.717	1291.809	-17.371	1101.925	1179.440	-82.429	1031.494	1276.218	-106.663	941.438	1242.085	-166.694	840.884	1338.797	378.564	1315.965	1358.327	204.651	1301.733	1190.555	304.824	1312.670	1416.283	379.883	1175.568	1439.840	472.913	1037.960	1538.243	414.225	1025.950	1621.490	424.957	946.899	1354.836	42.565	882.324	1122.844	139.300	930.899	1118.709	189.438	929.771	1128.904	249.325	948.402	1365.193	308.002	873.628	1374.332	-17.613	685.477	1236.279	15.955	623.707	1270.539	26.876	558.429	1373.526	19.472	453.224	1464.660	-12.894	352.012	1500.932	-5.705	286.939	1371.888	48.814	312.070	1406.281	50.059	244.037	1566.547	16.732	94.653	1534.908	76.818	33.896	1688.576	-29.776	102.483	1281.778	340.192	609.609	1275.058	312.972	533.100	1134.456	345.741	628.007	1118.595	326.494	554.683	1145.739	330.247	464.994	1161.281	330.864	361.903	1056.508	330.518	394.877	1031.675	329.817	319.943	1043.331	311.476	78.922	953.472	281.904	45.537	1141.170	319.327	21.473	1261.202	87.271	831.372	1266.984	281.885	806.054
	453	2.26000	1274.284	9.259	1325.171	1350.653	149.867	1306.888	1298.154	-18.335	1100.101	1185.485	-83.732	1029.821	1281.775	-107.648	939.313	1247.605	-168.751	839.392	1345.241	377.352	1314.203	1365.251	203.848	1300.136	1197.116	303.196	1310.763	1423.081	379.005	1174.513	1448.688	471.781	1037.616	1546.798	413.147	1026.382	1631.153	423.128	948.366	1362.248	42.073	880.582	1129.967	137.216	929.589	1125.751	188.492	928.352	1135.827	246.901	945.945	1371.922	307.370	872.372	1380.870	-17.710	683.049	1242.885	14.932	621.938	1276.619	26.844	556.784	1379.792	17.703	451.102	1473.936	-12.919	352.274	1511.332	-5.271	287.343	1381.788	47.910	310.184	1417.614	48.803	242.536	1580.395	15.310	96.731	1549.877	75.038	35.165	1703.459	-29.560	106.414	1287.168	339.470	608.673	1278.292	312.131	531.762	1138.772	344.597	628.264	1123.233	325.631	554.138	1150.390	329.761	463.601	1164.350	331.228	360.979	1059.721	329.943	394.880	1034.332	329.867	320.933	1043.766	311.486	79.126	953.450	281.551	45.677	1140.929	319.113	21.344	1268.712	86.182	829.708	1273.730	280.833	804.518
	454	2.26500	1281.342	7.972	1323.459	1357.378	148.956	1304.877	1304.536	-19.327	1098.091	1191.873	-84.184	1028.118	1288.110	-108.467	937.853	1253.718	-169.571	837.931	1352.146	375.636	1312.813	1372.027	202.677	1298.542	1204.864	301.162	1308.419	1430.630	377.705	1173.822	1455.987	469.765	1037.569	1555.519	411.106	1027.044	1640.262	421.366	949.455	1368.849	41.445	878.800	1135.860	135.807	927.561	1132.916	187.131	927.039	1143.457	243.614	944.151	1378.365	306.529	870.199	1386.323	-16.260	681.175	1249.907	15.622	619.543	1283.337	26.532	555.078	1387.008	19.516	448.581	1482.973	-13.056	352.559	1521.238	-6.286	288.155	1390.748	46.716	307.941	1428.259	48.420	241.308	1594.224	15.162	98.318	1563.884	74.258	35.571	1717.229	-29.919	110.300	1291.525	339.190	607.429	1282.426	312.076	530.614	1144.005	344.069	627.905	1128.194	324.932	554.333	1153.668	330.041	463.477	1167.514	331.003	360.627	1063.511	329.867	395.331	1036.824	329.156	321.331	1044.042	311.171	79.485	953.494	281.685	45.911	1141.673	319.354	21.695	1275.573	84.825	827.774	1280.074	279.501	802.675
	455	2.27000	1287.859	6.373	1321.896	1364.506	147.605	1303.297	1311.025	-20.020	1096.292	1197.981	-85.679	1026.682	1294.207	-109.560	935.714	1259.283	-171.391	835.925	1358.593	374.863	1310.844	1378.784	201.683	1296.969	1210.818	301.826	1308.118	1438.407	376.383	1172.890	1466.752	469.471	1036.963	1564.433	409.561	1027.451	1649.493	418.730	950.466	1375.597	41.479	877.135	1143.450	135.825	925.586	1139.012	184.945	925.548	1151.337	241.003	940.820	1384.005	306.453	868.701	1393.614	-17.487	679.529	1256.635	15.032	617.999	1290.211	27.183	553.551	1393.086	20.057	446.549	1491.627	-13.408	351.708	1530.555	-5.965	288.337	1400.970	47.093	306.523	1438.303	47.280	240.396	1605.766	15.424	98.567	1576.433	74.713	34.978	1728.871	-29.227	113.179	1297.086	338.602	605.919	1287.960	311.891	529.497	1148.962	344.062	627.278	1132.273	324.675	553.783	1158.531	329.263	462.766	1170.714	331.083	359.851	1066.727	329.999	395.674	1039.988	329.192	322.101	1044.235	311.257	79.421	953.938	282.309	46.008	1141.432	319.140	21.565	1282.987	84.029	825.914	1286.499	278.708	800.673
	456	2.27500	1294.916	5.921	1319.799	1370.812	146.680	1301.698	1318.021	-20.653	1094.445	1204.380	-86.481	1024.936	1300.361	-110.916	934.207	1265.643	-172.416	834.727	1365.195	374.018	1309.103	1385.082	200.302	1295.064	1218.611	300.160	1305.905	1445.485	375.282	1171.949	1474.968	467.876	1036.224	1572.652	407.793	1027.706	1658.929	417.139	951.024	1383.392	41.038	875.303	1149.969	133.485	923.731	1145.475	184.558	924.144	1158.513	239.402	939.607	1390.792	305.895	867.649	1401.232	-16.818	678.123	1263.900	14.289	617.075	1298.001	26.450	552.165	1401.066	19.923	444.921	1500.202	-13.693	351.167	1540.386	-6.046	288.088	1410.017	46.037	305.413	1447.683	46.797	238.581	1616.565	15.569	99.337	1587.543	75.579	33.634	1739.779	-28.536	114.193	1301.457	338.347	604.395	1292.859	311.318	527.908	1154.564	343.420	626.679	1137.703	324.198	553.472	1162.893	328.913	462.901	1174.389	330.780	358.843	1070.564	329.884	396.422	1042.344	328.390	322.327	1044.783	311.605	79.981	954.354	282.000	46.879	1143.365	319.727	22.152	1290.279	83.390	824.122	1293.259	278.168	799.596
	457	2.28000	1301.342	5.013	1318.294	1377.848	145.278	1299.958	1324.254	-21.608	1092.752	1211.149	-87.463	1023.099	1306.803	-112.127	932.438	1271.476	-174.077	832.558	1371.673	372.732	1307.368	1391.568	199.563	1293.399	1222.957	297.710	1305.248	1452.326	373.862	1170.991	1483.565	466.275	1036.446	1580.872	405.910	1027.970	1667.357	414.640	951.036	1390.192	40.704	873.368	1156.969	131.488	921.709	1152.616	183.000	922.601	1163.575	238.207	938.537	1397.072	305.717	866.160	1408.621	-17.246	677.121	1270.752	13.421	615.518	1306.433	26.370	550.904	1408.457	20.094	443.884	1509.866	-14.114	350.401	1548.975	-6.532	287.486	1418.209	45.802	303.848	1456.218	46.901	237.897	1625.172	15.653	98.545	1597.452	75.865	32.081	1748.572	-27.682	114.381	1307.900	337.923	603.637	1297.590	311.413	526.677	1159.920	342.947	626.403	1142.350	323.803	552.659	1168.170	328.791	462.286	1177.631	330.769	357.484	1073.906	328.962	396.376	1046.469	328.571	322.959	1045.070	311.975	80.151	955.547	281.608	47.599	1142.882	319.363	22.336	1297.175	82.779	822.227	1299.224	277.637	798.243
	458	2.28500	1308.403	3.036	1316.328	1384.383	144.466	1298.217	1331.096	-22.559	1090.850	1217.580	-87.812	1021.622	1312.781	-112.761	930.018	1278.165	-174.855	831.258	1377.913	370.812	1305.999	1398.505	197.979	1292.025	1230.539	295.966	1302.913	1459.716	372.336	1170.017	1491.946	465.096	1035.417	1589.325	403.674	1027.773	1676.458	413.286	952.191	1397.499	39.951	871.670	1163.692	126.624	920.784	1159.613	181.522	920.482	1169.264	240.090	938.918	1403.661	304.749	864.166	1416.597	-17.849	676.482	1277.684	12.636	614.278	1314.626	25.865	549.182	1417.284	19.540	442.648	1517.947	-13.942	349.067	1557.663	-6.403	285.530	1427.226	44.884	303.599	1465.166	46.685	237.263	1633.746	16.251	97.072	1605.809	75.959	30.793	1756.962	-26.224	112.697	1313.535	337.526	601.988	1301.693	310.673	525.089	1165.613	342.090	625.537	1147.298	322.698	551.273	1172.771	329.009	462.043	1181.086	330.397	356.542	1078.182	328.491	395.868	1049.871	328.594	323.298	1046.632	311.647	80.886	956.015	281.453	48.640	1143.116	319.480	22.245	1303.908	81.707	820.803	1305.234	276.574	796.844
	459	2.29000	1315.276	1.609	1314.627	1391.134	143.263	1296.741	1337.925	-23.621	1089.046	1224.257	-89.120	1019.939	1319.349	-113.718	928.225	1283.679	-175.933	828.611	1385.133	369.503	1304.605	1405.347	196.978	1290.475	1236.398	297.471	1302.306	1467.496	370.880	1168.875	1499.660	463.272	1035.055	1597.452	402.226	1027.768	1684.722	411.135	952.769	1404.519	39.166	869.825	1170.518	129.862	918.377	1166.045	180.612	919.571	1175.363	240.521	937.697	1410.015	305.031	863.435	1425.409	-18.115	676.654	1289.710	11.566	612.320	1323.614	23.831	549.028	1426.694	18.150	442.803	1527.170	-14.451	348.123	1565.751	-6.132	284.746	1435.125	44.459	302.755	1472.636	46.396	236.585	1640.714	17.090	95.607	1612.117	76.594	30.223	1764.169	-25.211	111.238	1318.498	337.200	600.658	1308.620	310.638	524.080	1171.284	341.870	624.637	1153.515	323.144	551.227	1176.909	327.959	460.898	1184.970	329.800	355.822	1082.992	328.533	396.902	1053.026	328.683	324.038	1047.190	311.965	81.513	956.394	281.449	49.238	1143.044	319.537	21.993	1310.330	82.343	819.095	1312.152	277.290	795.830
